<svg xmlns="http://www.w3.org/2000/svg" xmlns:xlink="http://www.w3.org/1999/xlink" viewBox="0 0 498.9 599.7"><defs><style>.a{fill:url(#a);}.b{fill:url(#b);}.c{fill:url(#c);}.d{fill:url(#d);}.e{fill:url(#e);}.f{fill:url(#f);}.g{fill:url(#g);}.h{fill:url(#h);}.i{fill:url(#i);}.j{fill:url(#j);}.k{fill:url(#k);}.l{fill:url(#l);}.m{fill:url(#m);}.n{fill:#6392ca;}.o{fill:url(#n);}.p{fill:url(#o);}.q{fill:url(#p);}.r{fill:url(#q);}.s{fill:url(#r);}.t{fill:url(#s);}.u{fill:url(#t);}.v{fill:url(#u);}.w{fill:url(#v);}.x{fill:url(#w);}.y{fill:url(#x);}.z{fill:url(#y);}.aa{fill:url(#z);}.ab{fill:url(#aa);}.ac{fill:url(#ab);}.ad{fill:url(#ac);}.ae{fill:url(#ad);}.af{fill:url(#ae);}.ag{fill:url(#af);}</style><linearGradient id="a" x1="313.16" y1="658.22" x2="310.24" y2="363.43" gradientUnits="userSpaceOnUse"><stop offset="0" stop-color="#249473"/><stop offset="0.21" stop-color="#5aae96" stop-opacity="0.75"/><stop offset="0.58" stop-color="#b3dace" stop-opacity="0.35"/><stop offset="0.86" stop-color="#eaf5f2" stop-opacity="0.1"/><stop offset="1" stop-color="#fff" stop-opacity="0"/></linearGradient><linearGradient id="b" x1="365.2" y1="623.81" x2="437.35" y2="528.83" gradientUnits="userSpaceOnUse"><stop offset="0.01" stop-color="#6392ca"/><stop offset="0.46" stop-color="#6190c9"/><stop offset="0.62" stop-color="#5a8ac4"/><stop offset="0.73" stop-color="#4f7fbc"/><stop offset="0.82" stop-color="#3e6fb0"/><stop offset="0.9" stop-color="#295ca2"/></linearGradient><linearGradient id="c" x1="282.42" y1="599.16" x2="329.12" y2="628.52" xlink:href="#b"/><linearGradient id="d" x1="23.42" y1="571.4" x2="80.1" y2="571.4" gradientUnits="userSpaceOnUse"><stop offset="0.1" stop-color="#314793"/><stop offset="0.51" stop-color="#304691"/><stop offset="0.66" stop-color="#2e408a"/><stop offset="0.77" stop-color="#2a387f"/><stop offset="0.86" stop-color="#242b6e"/><stop offset="0.9" stop-color="#202262"/></linearGradient><linearGradient id="e" x1="37.1" y1="480.46" x2="55.99" y2="545.86" xlink:href="#b"/><linearGradient id="f" x1="291.18" y1="42.88" x2="327.7" y2="42.88" xlink:href="#d"/><linearGradient id="g" x1="105.24" y1="401.16" x2="39.38" y2="488.95" xlink:href="#b"/><linearGradient id="h" x1="327.7" y1="14.47" x2="395.09" y2="14.47" xlink:href="#d"/><linearGradient id="i" x1="267.82" y1="140.12" x2="237.57" y2="54.37" xlink:href="#b"/><linearGradient id="j" x1="114.57" y1="58.22" x2="180.82" y2="16.72" xlink:href="#b"/><linearGradient id="k" x1="479.54" y1="68.77" x2="372.93" y2="34.04" xlink:href="#b"/><linearGradient id="l" x1="305.15" y1="243.32" x2="263.6" y2="210.97" xlink:href="#b"/><linearGradient id="m" x1="319.44" y1="129.53" x2="328.8" y2="1.78" xlink:href="#b"/><linearGradient id="n" x1="163.68" y1="539.06" x2="164.57" y2="486.55" gradientUnits="userSpaceOnUse"><stop offset="0" stop-color="#249473"/><stop offset="0.08" stop-color="#4ba78c" stop-opacity="0.82"/><stop offset="0.21" stop-color="#82c2af" stop-opacity="0.57"/><stop offset="0.34" stop-color="#b0d8cc" stop-opacity="0.36"/><stop offset="0.48" stop-color="#d3e9e3" stop-opacity="0.2"/><stop offset="0.63" stop-color="#ecf5f3" stop-opacity="0.09"/><stop offset="0.8" stop-color="#fafdfc" stop-opacity="0.02"/><stop offset="1" stop-color="#fff" stop-opacity="0"/></linearGradient><linearGradient id="o" x1="298.87" y1="529.93" x2="299.14" y2="514.03" xlink:href="#n"/><linearGradient id="p" x1="323.27" y1="482.75" x2="323.93" y2="443.88" xlink:href="#n"/><linearGradient id="q" x1="300.24" y1="438.13" x2="295.69" y2="325.33" xlink:href="#n"/><linearGradient id="r" x1="277.71" y1="354.62" x2="273.53" y2="250.9" xlink:href="#n"/><linearGradient id="s" x1="267.44" y1="455.51" x2="265.34" y2="403.65" gradientTransform="translate(733.5 176.7) rotate(90)" xlink:href="#n"/><linearGradient id="t" x1="246.59" y1="372.35" x2="245.5" y2="345.36" xlink:href="#n"/><linearGradient id="u" x1="220.17" y1="385.36" x2="217.14" y2="310.3" xlink:href="#n"/><linearGradient id="v" x1="288.19" y1="58.88" x2="284" y2="-44.85" xlink:href="#n"/><linearGradient id="w" x1="81.92" y1="230.31" x2="80.35" y2="191.51" gradientTransform="translate(537.5 74.3) rotate(90)" xlink:href="#n"/><linearGradient id="x" x1="265.42" y1="49.49" x2="264.38" y2="23.82" xlink:href="#n"/><linearGradient id="y" x1="248.75" y1="74.97" x2="245.72" y2="-0.08" xlink:href="#n"/><linearGradient id="z" x1="291.73" y1="18.56" x2="289.71" y2="-31.45" xlink:href="#n"/><linearGradient id="aa" x1="327.63" y1="254.54" x2="325.79" y2="208.99" gradientTransform="translate(-14.4 -21.5)" xlink:href="#n"/><linearGradient id="ab" x1="178.49" y1="455.18" x2="182.04" y2="359.88" xlink:href="#n"/><linearGradient id="ac" x1="199.87" y1="473.14" x2="200.01" y2="465.19" gradientUnits="userSpaceOnUse"><stop offset="0.22" stop-color="#211915" stop-opacity="0.26"/><stop offset="0.47" stop-color="#9b9795" stop-opacity="0.12"/><stop offset="1" stop-color="#fff" stop-opacity="0"/></linearGradient><linearGradient id="ad" x1="241.56" y1="510.24" x2="241.95" y2="487.14" xlink:href="#n"/><linearGradient id="ae" x1="137.44" y1="487.26" x2="137.68" y2="473.69" xlink:href="#n"/><linearGradient id="af" x1="363.59" y1="536.27" x2="363.7" y2="529.62" xlink:href="#ac"/></defs><title>logo</title><path class="a" d="M176.9,585.7l-43.7,66.6,31.5,31.1H461.2L493,651.9l-42.8-66.3s-61.8-25.7-150.9,0S176.9,585.7,176.9,585.7Z" transform="translate(-62.2 -137.7)"/><polygon class="b" points="458 560.5 441.9 576.8 418.9 599.7 338.7 599.7 395.4 543.1 426.9 511.6 446.9 543.1 458 560.5"/><polygon class="c" points="396.4 543.1 339.7 599.7 80.1 599.7 41 560.6 23.4 543.1 396.4 543.1"/><polygon class="d" points="80.1 599.7 79.9 599.7 26.6 546.2 23.4 543.1 23.4 543.1 41 560.6 80.1 599.7"/><polygon class="e" points="103.6 543.1 23.4 543.1 0 519.6 31.5 471 72.5 512 103.6 543.1"/><polygon class="f" points="327.7 14.7 327.7 14.7 291.2 71 327.7 14.7"/><polygon class="g" points="251.7 235.4 251.7 235.4 72.5 512 31.5 471 218.4 183.1 251.7 235.4"/><polygon class="h" points="395.1 14.2 394.7 14.7 327.7 14.7 327.7 14.7 395.1 14.2"/><polygon class="i" points="498.9 519.2 475.4 543.1 458 560.5 446.9 543.1 426.9 511.6 250.7 235.4 250.7 235.4 217.4 183.1 146.3 71.7 213.2 71.7 251.1 131.2 284.4 183.4 467.9 470.6 498.9 519.2"/><polygon class="j" points="213.2 71.7 63.4 71.7 63.4 15 176.8 15 213.2 71.7"/><polygon class="k" points="440.6 14.2 440.6 70.9 357.5 70.9 394.2 14.2 440.6 14.2"/><polygon class="l" points="304.1 214.1 262.6 254 250.7 235.4 284.4 183.4 304.1 214.1"/><polygon class="m" points="395.1 14.2 358 71.4 285.4 183.4 252.1 131.2 290.9 71.4 291.2 71 327.7 14.7 395.1 14.2"/><polygon class="n" points="261.7 116.7 225.2 173 224.9 173.4 186.1 233.2 219.4 285.4 292 173.4 328.7 116.7 261.7 116.7"/><circle class="o" cx="164.2" cy="510.9" r="15.3"/><circle class="p" cx="299" cy="521.4" r="4.6"/><circle class="q" cx="323.6" cy="461.9" r="11.3"/><circle class="r" cx="299" cy="407.6" r="11.3"/><circle class="s" cx="276.6" cy="326.6" r="10.4"/><circle class="t" cx="292" cy="443.6" r="5.2" transform="translate(-290.3 198.7) rotate(-45)"/><circle class="u" cx="246.3" cy="365" r="2.7"/><circle class="v" cx="219.4" cy="365" r="7.5"/><circle class="w" cx="287.1" cy="30.8" r="10.4"/><circle class="x" cx="317.7" cy="155.8" r="3.9" transform="translate(-79.3 132.6) rotate(-45)"/><circle class="y" cx="265.1" cy="42.5" r="2.6"/><circle class="z" cx="247.9" cy="54.7" r="7.5"/><circle class="aa" cx="291.2" cy="5" r="5"/><circle class="ab" cx="312.8" cy="220.7" r="4.6" transform="translate(-129.1 132.2) rotate(-42.6)"/><circle class="ac" cx="179.5" cy="428.7" r="14.6"/><circle class="ad" cx="199.9" cy="468.9" r="2.3"/><circle class="ae" cx="241.8" cy="497.9" r="6.7"/><circle class="af" cx="137.6" cy="480" r="4"/><circle class="ag" cx="363.6" cy="532.7" r="1.9"/></svg>